<?xml version="1.0" encoding="utf-8"?>
<!-- Generator: Adobe Illustrator 16.0.0, SVG Export Plug-In . SVG Version: 6.00 Build 0)  -->
<!DOCTYPE svg PUBLIC "-//W3C//DTD SVG 1.1//EN" "http://www.w3.org/Graphics/SVG/1.1/DTD/svg11.dtd">
<svg version="1.1" id="Layer_1" xmlns="http://www.w3.org/2000/svg" xmlns:xlink="http://www.w3.org/1999/xlink" x="0px" y="0px"
	 width="624px" height="700px" viewBox="0 0 624 700" enable-background="new 0 0 624 700" xml:space="preserve">
<path fill="none" stroke="#007F7F" stroke-width="3" stroke-miterlimit="10" d="M347.673,509.668
	c8.256,37.75-25.854,65.337-25.854,65.337"/>
<path fill="none" stroke="#007F7F" stroke-width="3" stroke-miterlimit="10" d="M310.689,452.51
	c3.967,6.768,9.253,13.804,16.168,21.033c12.09,12.64,18.347,24.837,20.815,36.125"/>
<path fill="none" stroke="#007F7F" stroke-width="3" stroke-miterlimit="10" d="M309.112,384.277
	c-7.432,12.853-16.235,37.84,1.577,68.232"/>
<path fill="none" stroke="#007F7F" stroke-width="3" stroke-miterlimit="10" d="M346.66,317.056
	c-5.576,32.941-30.883,57.839-30.883,57.839s-3.182,3.358-6.665,9.383"/>
<path fill="none" stroke="#007F7F" stroke-width="3" stroke-miterlimit="10" d="M326.782,253.926
	c19.604,21.538,23.163,43.729,19.878,63.129"/>
<path fill="none" stroke="#007F7F" stroke-width="3" stroke-miterlimit="10" d="M293.673,195.667
	c0.189,15.536,7.174,33.364,27.215,52.271c2.108,1.989,4.07,3.986,5.894,5.989"/>
<path fill="none" stroke="#007F7F" stroke-width="3" stroke-miterlimit="10" d="M324.469,139.312c0,0-31.203,22.846-30.795,56.355"
	/>
<circle fill="#007F7F" cx="319.306" cy="139.73" r="12.8"/>
<path fill="#007F7F" d="M306.47,200.887c0,7.07-5.732,12.803-12.801,12.803s-12.801-5.732-12.801-12.803
	c0-7.067,5.732-12.799,12.801-12.799S306.47,193.819,306.47,200.887z"/>
<path fill="#007F7F" d="M343.465,259.047c0,7.068-5.734,12.8-12.801,12.8c-7.07,0-12.803-5.731-12.803-12.8
	c0-7.069,5.732-12.801,12.803-12.801C337.73,246.246,343.465,251.978,343.465,259.047z"/>
<circle fill="#007F7F" cx="344.729" cy="325.204" r="12.8"/>
<circle fill="#007F7F" cx="309.412" cy="384.364" r="12.801"/>
<circle fill="#007F7F" cx="308.862" cy="449.521" r="12.801"/>
<circle fill="#007F7F" cx="347.922" cy="511.681" r="12.801"/>
<circle fill="#007F7F" cx="324.469" cy="573.838" r="12.801"/>
</svg>
